# AST/ASF file generated using VICON BodyLanguage
# -----------------------------------------------
:version 1.10
:name VICON
:units
  mass 1.0
  length 0.45
  angle deg
:documentation
   .ast/.asf automatically generated from VICON data using
   VICON BodyBuilder and BodyLanguage model FoxedUp or BRILLIANT.MOD
:root
   order TX TY TZ RX RY RZ
   axis XYZ
   position 0 0 0  
   orientation 0 0 0 
:bonedata
  begin
     id 1 
     name lhipjoint
     direction 0.64773 -0.699417 0.302095 
     length 2.48597 
     axis 0 0 0  XYZ
  end
  begin
     id 2 
     name lfemur
     direction 0.34202 -0.939693 0  
     length 6.71947  
     axis 0 0 20  XYZ
    dof rx ry rz
    limits (-160.0 20.0)
           (-70.0 70.0)
           (-60.0 70.0)
  end
  begin
     id 3 
     name ltibia
     direction 0.34202 -0.939693 0   
     length 8.08777   
     axis 0 0 20   XYZ
    dof rx
    limits (-10.0 170.0)
  end
  begin
     id 4 
     name lfoot
     direction 0.0808503 -0.222134 0.971658   
     length 2.08264   
     axis -90 7.62852e-016 20   XYZ
    dof rx rz
    limits (-45.0 90.0)
           (-70.0 20.0)
  end
  begin
     id 5 
     name ltoes
     direction 1.53502e-011 -4.22007e-011 1   
     length 1.04662   
     axis -90 7.62852e-016 20   XYZ
    dof rx
    limits (-90.0 20.0)
  end
  begin
     id 6 
     name rhipjoint
     direction -0.610924 -0.726792 0.313919   
     length 2.39233  
     axis 0 0 0  XYZ 
  end
  begin
     id 7 
     name rfemur
     direction -0.34202 -0.939693 0   
     length 6.96955   
     axis 0 0 -20   XYZ
    dof rx ry rz
    limits (-160.0 20.0)
           (-70.0 70.0)
           (-70.0 60.0)
  end
  begin
     id 8 
     name rtibia
     direction -0.34202 -0.939693 0   
     length 8.19584   
     axis 0 0 -20   XYZ
    dof rx
    limits (-10.0 170.0)
 end
 begin
     id 9 
     name rfoot
     direction -0.077777 -0.213691 0.9738   
     length 2.07539  
     axis -90 -7.62852e-016 -20   XYZ
    dof rx rz
    limits (-45.0 90.0)
           (-20.0 70.0)
  end
  begin
     id 10 
     name rtoes
     direction -1.53558e-011 -4.22006e-011 1   
     length 1.04381   
     axis -90 -7.62852e-016 -20   XYZ
    dof rx
    limits (-90.0 20.0)
  end
  begin
     id 11 
     name lowerback
     direction -0.00971646 0.996074 0.0879841   
     length 1.67643   
     axis 0 0 0   XYZ
    dof rx ry rz
    limits (-20.0 45.0)
           (-30.0 30.0)
           (-30.0 30.0)
  end
  begin
     id 12 
     name upperback
     direction 0.0127391 0.991676 0.128127   
     length 1.63741   
     axis 0 0 0   XYZ
    dof rx ry rz
    limits (-20.0 45.0)
           (-30.0 30.0)
           (-30.0 30.0)
  end
  begin
     id 13 
     name thorax
     direction 0.0167583 0.996049 0.0872067   
     length 1.65931   
     axis 0 0 0   XYZ
    dof rx ry rz
    limits (-20.0 45.0)
           (-30.0 30.0)
           (-30.0 30.0)
  end
  begin
     id 14 
     name lowerneck
     direction -0.0317829 0.998312 0.0486079   
     length 1.79021   
     axis 0 0 0   XYZ
    dof rx ry rz
    limits (-20.0 45.0)
           (-30.0 30.0)
           (-30.0 30.0)
  end
  begin
     id 15 
     name upperneck
     direction 0.0896851 0.972452 -0.215159   
     length 1.78797   
     axis 0 0 0   XYZ
    dof rx ry rz
    limits (-20.0 45.0)
           (-30.0 30.0)
           (-30.0 30.0)
  end
  begin
     id 16
     name head
     direction 0.0310949 0.996503 -0.0775582  
     length 1.81549  
     axis 0 0 0   XYZ
    dof rx ry rz
    limits (-20.0 45.0)
           (-30.0 30.0)
           (-30.0 30.0)
  end
  begin
     id 17 
     name lclavicle
     direction 0.853638 0.502051 -0.138733  
     length 3.31627  
     axis 0 0 0   XYZ
    dof ry rz
    limits (-20.0 10.0)
           (0.0 20.0)
  end
  begin
     id 18 
     name lhumerus
     direction 1 -4.48962e-011 -1.41788e-018   
     length 5.54893   
     axis 180 -30 -90   XYZ
    dof rx ry rz
    limits (-60.0 90.0)
           (-90.0 90.0)
           (-90.0 90.0)
  end
  begin
     id 19
     name lradius
     direction 1 -4.48962e-011 -4.95754e-027   
     length 3.02898   
     axis 180 -30 -90   XYZ
    dof rx
    limits (-10.0 170.0)
  end
  begin
     id 20
     name lwrist
     direction 1 -4.48952e-011 -1.03764e-026   
     length 1.51449   
     axis 9.09556e-015 90 90   XYZ
    dof ry
    limits (-180.0 0.0)
 end
  begin
     id 21 
     name lhand
     direction 1 -4.4902e-011 -2.07528e-026   
     length 0.640951   
     axis 1.3242e-014 90 90   XYZ
    dof rx rz
    limits (-90.0 90.0)
           (-45.0 45.0)
  end
  begin
     id 22 
     name lfingers
     direction 1 -4.49014e-011 -4.15056e-026   
     length 0.516751   
     axis 2.64841e-014 90 90   XYZ
    dof rx
    limits (0.0 90.0)
  end
  begin
     id 23
     name lthumb
     direction 0.707107 -6.35008e-011 0.707107   
     length 0.741954   
     axis -90 45 2.85299e-015   XYZ
    dof rx rz
    limits (-45.0 45.0)
           (-45.0 45.0)
  end
  begin
     id 24 
     name rclavicle
     direction -0.888531 0.455324 -0.0565039   
     length 3.20126  
     axis 0 0 0   XYZ 
    dof ry rz
    limits (-10.0 20.0)
           (-20.0 0.0)
  end
  begin
     id 25 
     name rhumerus
     direction -1 -4.48946e-011 -8.98298e-028  
     length 5.3519   
     axis 180 30 90   XYZ
    dof rx ry rz
    limits (-90.0 60.0)
           (-90.0 90.0)
           (-90.0 90.0)
  end
  begin
     id 26 
     name rradius
     direction -1 -4.4899e-011 -3.18779e-027   
     length 3.02531   
     axis 180 30 90   XYZ
    dof rx
    limits (-10.0 170.0)
  end
  begin
     id 27 
     name rwrist
     direction -1 -4.4897e-011 -1.03764e-026   
     length 1.51266   
     axis 9.09556e-015 -90 -90   XYZ
    dof ry
    limits (-180.0 0.0)
  end
  begin
     id 28
     name rhand
     direction -1 -4.48941e-011 -2.07528e-026   
     length 0.78389   
     axis 1.3242e-014 -90 -90   XYZ
    dof rx rz
    limits (-90.0 90.0)
           (-45.0 45.0)
  end
  begin
     id 29
     name rfingers
     direction -1 -4.49012e-011 -4.15056e-026   
     length 0.631992   
     axis 2.64841e-014 -90 -90   XYZ
    dof rx
    limits (0.0 90.0)
  end
  begin
     id 30
     name rthumb
     direction -0.707107 -6.3496e-011 0.707107   
     length 0.907418   
     axis -90 -45 -2.85299e-015   XYZ
    dof rx rz
    limits (-45.0 45.0)
           (-45.0 45.0)
  end
:hierarchy
  begin
    root lhipjoint rhipjoint lowerback
    lhipjoint lfemur
    lfemur ltibia
    ltibia lfoot
    lfoot ltoes
    rhipjoint rfemur
    rfemur rtibia
    rtibia rfoot
    rfoot rtoes
    lowerback upperback
    upperback thorax
    thorax lowerneck lclavicle rclavicle
    lowerneck upperneck
    upperneck head
    lclavicle lhumerus
    lhumerus lradius
    lradius lwrist
    lwrist lhand lthumb
    lhand lfingers
    rclavicle rhumerus
    rhumerus rradius
    rradius rwrist
    rwrist rhand rthumb
    rhand rfingers
  end

#!OML:ASF E:\Style3\Style3.ASF
:FULLY-SPECIFIED
:DEGREES
1
root 0.525077 17.2416 1.51212 -166.815 39.5175 -179.147
lowerback -8.27768 -0.115783 1.76501
upperback -12.6352 1.59459 4.02603
thorax -8.8884 1.51275 3.21589
lowerneck -4.20831 -0.97235 -5.1928
upperneck -6.15991 0.906544 21.8117
head -1.11635 0.791427 7.57748
rclavicle 3.57812e-015 -2.06736e-014
rhumerus 16.6098 30.953 -90.2106
rradius 129.919
rwrist -72.8332
rhand -29.1939 14.1242
rfingers 7.12502
rthumb -2.53894 -15.8404
lclavicle 3.57812e-015 -2.06736e-014
lhumerus 15.7262 -19.0795 97.6927
lradius 129.438
lwrist 81.7964
lhand -17.5205 34.1798
lfingers 7.12502
lthumb 8.7331 63.9792
rfemur -11.7087 -5.78318 22.4728
rtibia 27.643
rfoot -27.6786 -33.7028
rtoes -4.33455
lfemur -35.9137 -17.2499 -5.37165
ltibia 27.4095
lfoot -9.11675 -6.34378
ltoes -28.1041
2
root 0.540038 17.2415 1.50604 -167.096 39.3989 -179.263
lowerback -8.47725 -0.0974128 1.76056
upperback -12.7925 1.67058 4.0816
thorax -8.96306 1.57558 3.28029
lowerneck -4.09993 -0.98678 -5.35603
upperneck -6.18431 0.88983 21.8359
head -1.13928 0.775875 7.6146
rclavicle 1.11319e-014 -1.74931e-014
rhumerus 16.8037 30.8759 -89.9142
rradius 130.694
rwrist -72.7298
rhand -27.6869 13.5009
rfingers 7.12502
rthumb -1.08353 -16.4761
lclavicle 1.11319e-014 -1.74931e-014
lhumerus 16.2242 -19.8725 97.5629
lradius 130.144
lwrist 80.0272
lhand -16.8938 34.2083
lfingers 7.12502
lthumb 9.33782 63.9815
rfemur -11.2871 -5.62615 22.4209
rtibia 27.4592
rfoot -27.9086 -33.8759
rtoes -3.75298
lfemur -35.5474 -17.3226 -5.55429
ltibia 27.1484
lfoot -9.03457 -6.43425
ltoes -28.2421
3
root 0.555019 17.2413 1.50078 -167.479 39.3383 -179.457
lowerback -8.63889 -0.105736 1.66466
upperback -12.898 1.69522 4.1214
thorax -8.99799 1.61326 3.37892
lowerneck -4.22557 -0.995978 -5.33905
upperneck -5.92003 0.81203 21.7733
head -1.0315 0.754258 7.58899
rclavicle -1.02175e-013 -9.70069e-014
rhumerus 16.932 30.9925 -89.7939
rradius 131.49
rwrist -72.7397
rhand -26.2679 13.416
rfingers 7.12502
rthumb 0.286998 -16.5636
lclavicle -1.02175e-013 -9.70069e-014
lhumerus 16.7039 -20.6373 97.264
lradius 131.175
lwrist 79.3977
lhand -16.9784 33.6657
lfingers 7.12502
lthumb 9.25621 63.4426
rfemur -10.8177 -5.40432 22.2914
rtibia 27.2711
rfoot -28.0923 -34.0985
rtoes -3.18117
lfemur -35.1559 -17.3147 -5.85808
ltibia 27.0164
lfoot -9.01951 -6.55961
ltoes -28.6238
4
root 0.571554 17.2426 1.49559 -167.773 39.2842 -179.507
lowerback -8.8416 -0.118911 1.6741
upperback -12.9886 1.71039 4.18508
thorax -8.99149 1.63821 3.44506
lowerneck -4.34341 -0.953095 -5.36581
upperneck -5.67822 0.82667 21.8205
head -0.943896 0.779926 7.60857
rclavicle -2.14687e-014 5.725e-014
rhumerus 16.9787 31.1502 -89.8126
rradius 132.188
rwrist -72.8622
rhand -24.7649 13.6226
rfingers 7.12502
rthumb 1.73868 -16.35
lclavicle -2.14687e-014 5.725e-014
lhumerus 17.0907 -21.4046 96.9496
lradius 132.222
lwrist 79.0099
lhand -16.6179 32.9773
lfingers 7.12502
lthumb 9.60398 62.7384
rfemur -10.3413 -5.19277 22.2902
rtibia 27.072
rfoot -28.2315 -34.2773
rtoes -2.95333
lfemur -34.7286 -17.3736 -5.97973
ltibia 26.8726
lfoot -9.07754 -6.62882
ltoes -28.9756
5
root 0.586945 17.2424 1.49029 -168.116 39.2078 -179.6
lowerback -9.01471 -0.152205 1.65669
upperback -13.0797 1.69747 4.23766
thorax -9.00081 1.64997 3.51366
lowerneck -4.32517 -0.865358 -5.31384
upperneck -5.57952 0.928675 21.8208
head -0.933933 0.832776 7.59915
rclavicle -5.40694e-014 -1.39944e-013
rhumerus 17.0152 31.351 -89.8253
rradius 132.94
rwrist -73.2452
rhand -23.3897 13.6277
rfingers 7.12502
rthumb 3.06679 -16.33
lclavicle -5.40694e-014 -1.39944e-013
lhumerus 17.352 -22.1912 96.751
lradius 133.297
lwrist 78.6852
lhand -16.0333 32.511
lfingers 7.12502
lthumb 10.168 62.2453
rfemur -9.83796 -5.00868 22.2509
rtibia 26.8642
rfoot -28.3933 -34.4702
rtoes -2.87698
lfemur -34.3079 -17.3835 -6.17759
ltibia 26.7684
lfoot -9.14187 -6.78678
ltoes -28.9541
